/* XPM */
static char * feed_unread_xpm[] = {
"9 9 10 1",
" 	c None",
".	c #0BD5E4",
"+	c #0AD5E5",
"@	c #0BD5E5",
"#	c #0AD6E5",
"$	c #0AD5E4",
"%	c #0AD5E3",
"&	c #0AD6E4",
"*	c #0AD4E4",
"=	c #0BD6E5",
".+@      ",
"#$$$$    ",
"   $$$   ",
"$$   $$  ",
".$$$  $$ ",
"  +$$ $$ ",
"   +$  $.",
"#$  $$ %$",
"&*  .$ =@"};
