/* XPM */
static char * unread_mail_xpm[] = {
"11 9 8 1",
" 	c None",
".	c #0DD6E4",
"+	c #0CD6E4",
"@	c #0CD6E5",
"#	c #0DD6E3",
"$	c #0CD6E3",
"%	c #0BD6E4",
"&	c #0CD5E4",
".+++++++++@",
"++.#...#.++",
"+$++   ++++",
"++ +. .+ ++",
"++  %+%  ++",
"++   &   ++",
"++       ++",
"++.......++",
"@+++++++++@"};
